<?xml version="1.0" standalone="no"?>
<!DOCTYPE svg PUBLIC "-//W3C//DTD SVG 20010904//EN"
 "http://www.w3.org/TR/2001/REC-SVG-20010904/DTD/svg10.dtd">
<svg version="1.0" xmlns="http://www.w3.org/2000/svg"
 width="100.000000pt" height="100.000000pt" viewBox="0 0 100.000000 100.000000"
 preserveAspectRatio="xMidYMid meet">

<g transform="translate(0.000000,100.000000) scale(0.100000,-0.100000)"
fill="#000000" stroke="none">
<path d="M557 612 l-117 -118 28 -27 28 -27 119 120 119 119 -24 26 c-13 14
-26 25 -29 25 -4 0 -59 -53 -124 -118z"/>
<path d="M713 518 l-213 -213 -90 90 -90 90 -27 -28 -28 -27 118 -118 117
-117 242 242 242 242 -24 26 c-13 14 -26 25 -29 25 -3 0 -102 -96 -218 -212z"/>
<path d="M40 455 l-24 -26 109 -109 109 -110 28 27 28 27 -107 108 c-59 59
-110 108 -114 108 -3 0 -16 -11 -29 -25z"/>
</g>
</svg>
